# xmcd CD database file
#
# Track frame offsets:
#	150
#	10472
#	24062
#	38205
#	48535
#	54077
#	67492
#	83747
#	94260
#	101917
#	120385
#	132170
#	146895
#	155642
#	169182
#	179910
#
# Disc length: 2557 seconds
#
# Revision: 2
# Processed by: cddbd v1.5.2PL0 Copyright (c) Steve Scherf et al.
# Submitted via: CDex 1.77
#
DISCID=e409fb10
DTITLE=Various Artist - Heart of Country Part 2
DYEAR=1900
DGENRE=Country
TTITLE0=Frankie Laine - I Believe
TTITLE1=Lynn Anderson - Talking in your Sleep
TTITLE2=Freddy Fender - Wasted Days
TTITLE3=Rick Nelson - Hello Mary Lou
TTITLE4=Willie Nelson - The Ghost
TTITLE5=Kenny Rogers - Shine on Ruby Mountain
TTITLE6=Lynn Anderson - The Devil went down to Georgia
TTITLE7=Kenny Rogers - Ticket to Nowhere
TTITLE8=Jim Reeves - Oklahoma Hills
TTITLE9=Federation - Clear Road
TTITLE10=Rick Nelson - Fools rush in
TTITLE11=Tina Turner - Good hearted Woman
TTITLE12=Patsy Cline - Come on in and make youself at home
TTITLE13=Federation - Cowboy Reggae
TTITLE14=Patsy Cline - Stop Look and Listen
TTITLE15=Tina Turner - Stand by your Man
EXTD=
EXTT0=
EXTT1=
EXTT2=
EXTT3=
EXTT4=
EXTT5=
EXTT6=
EXTT7=
EXTT8=
EXTT9=
EXTT10=
EXTT11=
EXTT12=
EXTT13=
EXTT14=
EXTT15=
PLAYORDER=
